<?xml version="1.0" encoding="UTF-8"?>
<svg id="Layer_2" data-name="Layer 2" xmlns="http://www.w3.org/2000/svg" viewBox="0 0 1155.74 323.87">
  <g id="Logo">
    <g>
      <path d="M123.76,153.76c-2.95,1.44-6.52,2.73-10.68,3.86-4.17,1.14-8.83,2.16-13.98,3.07-5.15,.91-10.53,1.36-16.14,1.36-11.97,0-23.03-1.7-33.18-5.11-10.15-3.41-18.9-8.6-26.25-15.57-7.35-6.97-13.11-15.49-17.27-25.57C2.08,105.73,0,94.25,0,81.37s2.08-24.35,6.25-34.43c4.17-10.08,10-18.6,17.5-25.57,7.5-6.97,16.48-12.27,26.93-15.91S72.65,0,85.23,0c10,0,19.13,1.02,27.39,3.07,8.26,2.05,15.57,4.51,21.93,7.39-1.21,2.12-2.2,5-2.95,8.64-.76,3.64-1.36,6.67-1.82,9.09l-1.36,.46c-1.52-1.82-3.64-3.86-6.36-6.14-2.73-2.27-5.91-4.47-9.55-6.59-3.64-2.12-7.73-3.9-12.27-5.34-4.55-1.44-9.55-2.16-15-2.16-8.94,0-17.24,1.44-24.89,4.32-7.65,2.88-14.32,7.31-20,13.3-5.68,5.99-10.11,13.56-13.3,22.73-3.18,9.17-4.77,20.04-4.77,32.62s1.59,23.45,4.77,32.62c3.18,9.17,7.61,16.74,13.3,22.73,5.68,5.99,12.35,10.42,20,13.3,7.65,2.88,15.95,4.32,24.89,4.32,5.45,0,10.49-.68,15.11-2.05,4.62-1.36,8.86-2.99,12.73-4.89,3.86-1.89,7.35-3.94,10.46-6.14,3.1-2.19,5.72-4.13,7.84-5.8l.91,.91-2.05,13.41c-1.36,1.21-3.52,2.54-6.48,3.98Z" fill="#fff"/>
      <path d="M279.56,159.1c-2.12-.3-4.13-.45-6.02-.45h-12.05c-1.9,0-3.9,.15-6.02,.45-1.06-3.48-2.5-7.69-4.32-12.61-1.82-4.92-3.83-10.08-6.02-15.46-2.2-5.38-4.43-10.83-6.71-16.36-2.27-5.53-4.4-10.8-6.36-15.8-4.85-.15-9.77-.26-14.77-.34-5-.07-10-.11-15-.11-4.7,0-9.32,.04-13.87,.11-4.54,.08-9.17,.19-13.86,.34-4.85,11.82-9.24,23.07-13.18,33.75-3.94,10.68-6.9,19.51-8.86,26.48-2.58-.3-5.38-.45-8.41-.45s-5.83,.15-8.41,.45c12.27-26.51,24.24-52.88,35.91-79.09,11.67-26.21,23.41-52.88,35.23-80h4.32c3.64,8.79,7.58,18.3,11.82,28.52,4.24,10.23,8.56,20.57,12.96,31.02,4.39,10.46,8.79,20.84,13.18,31.14,4.39,10.31,8.52,19.89,12.39,28.75,3.86,8.86,7.35,16.78,10.46,23.75,3.1,6.97,5.64,12.27,7.61,15.91Zm-100.69-70.69c3.94,0,8.03,.08,12.27,.23,4.24,.15,8.33,.23,12.27,.23,4.24,0,8.48-.04,12.73-.11,4.24-.07,8.48-.19,12.73-.34l-25.23-57.73-24.77,57.73Z" fill="#fff"/>
      <path d="M377.97,100.12c-19.7-21.14-39.4-42.16-59.09-63.07-.15,4.24-.3,9.93-.45,17.05-.15,7.12-.23,16.82-.23,29.09,0,3.18,.04,7.12,.11,11.82,.07,4.7,.15,9.62,.23,14.77,.08,5.15,.19,10.38,.34,15.68,.15,5.31,.3,10.23,.46,14.77,.15,4.55,.3,8.52,.45,11.93,.15,3.41,.3,5.72,.46,6.93-2.43-.3-5.08-.45-7.96-.45-3.03,0-5.83,.15-8.41,.45,.3-1.51,.64-4.32,1.02-8.41,.38-4.09,.72-8.98,1.02-14.66,.3-5.68,.64-11.85,1.02-18.52,.38-6.67,.68-13.33,.91-20,.23-6.67,.42-13.18,.57-19.55,.15-6.36,.23-12.05,.23-17.05,0-14.55-.04-27.05-.11-37.5-.08-10.46-.27-18.26-.57-23.41h3.64c9.24,10,19.13,20.72,29.66,32.16,10.53,11.44,20.99,22.73,31.37,33.87,10.38,11.14,20.23,21.67,29.55,31.59,9.32,9.93,17.46,18.38,24.43,25.34v-30.91c0-15.91-.11-31.4-.34-46.48-.23-15.08-.72-29.28-1.48-42.62,3.03,.76,5.6,1.14,7.73,1.14,1.82,0,4.24-.38,7.27-1.14-.3,3.33-.65,8.33-1.02,15-.38,6.67-.76,13.79-1.14,21.36-.38,7.58-.72,15-1.02,22.27-.31,7.27-.45,13.11-.45,17.5v13.64c0,5.15,.04,10.53,.11,16.14,.07,5.61,.15,11.25,.23,16.93,.07,5.68,.15,10.99,.23,15.91,.08,4.93,.11,9.21,.11,12.84v7.5h-3.18c-17.43-20.15-35.99-40.8-55.68-61.94Z" fill="#fff"/>
      <path d="M603.9,159.1c-2.12-.3-4.13-.45-6.02-.45h-12.05c-1.9,0-3.9,.15-6.02,.45-1.06-3.48-2.5-7.69-4.32-12.61-1.82-4.92-3.83-10.08-6.02-15.46-2.2-5.38-4.43-10.83-6.71-16.36-2.27-5.53-4.4-10.8-6.36-15.8-4.85-.15-9.77-.26-14.77-.34-5-.07-10-.11-15-.11-4.7,0-9.32,.04-13.87,.11-4.54,.08-9.17,.19-13.86,.34-4.85,11.82-9.24,23.07-13.18,33.75-3.94,10.68-6.9,19.51-8.86,26.48-2.58-.3-5.38-.45-8.41-.45s-5.83,.15-8.41,.45c12.27-26.51,24.24-52.88,35.91-79.09,11.67-26.21,23.41-52.88,35.23-80h4.32c3.64,8.79,7.58,18.3,11.82,28.52,4.24,10.23,8.56,20.57,12.96,31.02,4.39,10.46,8.79,20.84,13.18,31.14,4.39,10.31,8.52,19.89,12.39,28.75,3.86,8.86,7.35,16.78,10.46,23.75,3.1,6.97,5.64,12.27,7.61,15.91Zm-100.69-70.69c3.94,0,8.03,.08,12.27,.23,4.24,.15,8.33,.23,12.27,.23,4.24,0,8.48-.04,12.73-.11,4.24-.07,8.48-.19,12.73-.34l-25.23-57.73-24.77,57.73Z" fill="#fff"/>
      <path d="M630.03,61.82c0-10-.19-19.81-.57-29.43-.38-9.62-.8-19.43-1.25-29.43,5.76,.31,11.48,.57,17.16,.79,5.68,.23,11.4,.34,17.16,.34s11.48-.19,17.16-.57c5.68-.38,11.4-.57,17.16-.57,13.33,0,24.74,1.74,34.21,5.23,9.47,3.49,17.23,8.45,23.3,14.89,6.06,6.44,10.49,14.32,13.3,23.64,2.8,9.32,4.21,19.81,4.21,31.48,0,15.15-2.61,27.92-7.84,38.3-5.23,10.38-11.9,18.75-20,25.11-8.11,6.36-17.05,10.88-26.82,13.52-9.77,2.65-19.13,3.98-28.07,3.98-5.15,0-10.23-.08-15.23-.23-5-.15-10.08-.23-15.23-.23h-15.23c-5,0-10.08,.15-15.23,.45,.45-9.39,.87-18.94,1.25-28.64,.38-9.7,.57-19.55,.57-29.55V61.82Zm18.64,39.09c0,16.36,.46,32.43,1.36,48.18,3.18,.76,7.5,1.33,12.96,1.7,5.46,.38,11.06,.57,16.82,.57,8.33,0,16.67-.98,25-2.95,8.33-1.97,15.8-5.68,22.39-11.14,6.59-5.45,11.97-12.92,16.14-22.39,4.17-9.47,6.25-21.71,6.25-36.71,0-13.18-1.63-24.01-4.89-32.5-3.26-8.48-7.73-15.19-13.41-20.11-5.68-4.92-12.46-8.33-20.34-10.23-7.88-1.89-16.52-2.84-25.91-2.84-6.82,0-13.18,.23-19.09,.68-5.91,.46-11.22,.99-15.91,1.59-.46,7.27-.8,14.89-1.02,22.84-.23,7.96-.34,16.02-.34,24.21v39.09Z" fill="#fff"/>
      <path d="M806.29,32.39c-.38-9.62-.8-19.43-1.25-29.43,1.97,.31,3.86,.57,5.68,.79,1.82,.23,3.64,.34,5.46,.34s3.64-.11,5.46-.34c1.82-.23,3.71-.49,5.68-.79-.45,10-.87,19.81-1.25,29.43-.38,9.62-.57,19.43-.57,29.43v39.09c0,10,.19,19.85,.57,29.55,.38,9.7,.8,19.25,1.25,28.64-3.49-.3-7.2-.45-11.14-.45s-7.65,.15-11.14,.45c.45-9.39,.87-18.94,1.25-28.64,.38-9.7,.57-19.55,.57-29.55V61.82c0-10-.19-19.81-.57-29.43Z" fill="#fff"/>
      <path d="M995.51,159.1c-2.12-.3-4.13-.45-6.02-.45h-12.05c-1.9,0-3.9,.15-6.02,.45-1.06-3.48-2.5-7.69-4.32-12.61-1.82-4.92-3.83-10.08-6.02-15.46-2.2-5.38-4.43-10.83-6.71-16.36-2.27-5.53-4.4-10.8-6.36-15.8-4.85-.15-9.77-.26-14.77-.34-5-.07-10-.11-15-.11-4.7,0-9.32,.04-13.87,.11-4.54,.08-9.17,.19-13.86,.34-4.85,11.82-9.24,23.07-13.18,33.75-3.94,10.68-6.9,19.51-8.86,26.48-2.58-.3-5.38-.45-8.41-.45s-5.83,.15-8.41,.45c12.27-26.51,24.24-52.88,35.91-79.09,11.67-26.21,23.41-52.88,35.23-80h4.32c3.64,8.79,7.58,18.3,11.82,28.52,4.24,10.23,8.56,20.57,12.96,31.02,4.39,10.46,8.79,20.84,13.18,31.14,4.39,10.31,8.52,19.89,12.39,28.75,3.86,8.86,7.35,16.78,10.46,23.75,3.1,6.97,5.64,12.27,7.61,15.91Zm-100.69-70.69c3.94,0,8.03,.08,12.27,.23,4.24,.15,8.33,.23,12.27,.23,4.24,0,8.48-.04,12.73-.11,4.24-.07,8.48-.19,12.73-.34l-25.23-57.73-24.77,57.73Z" fill="#fff"/>
      <path d="M1093.92,100.12c-19.7-21.14-39.4-42.16-59.09-63.07-.15,4.24-.3,9.93-.45,17.05-.15,7.12-.23,16.82-.23,29.09,0,3.18,.04,7.12,.11,11.82,.07,4.7,.15,9.62,.23,14.77,.08,5.15,.19,10.38,.34,15.68,.15,5.31,.3,10.23,.46,14.77,.15,4.55,.3,8.52,.45,11.93,.15,3.41,.3,5.72,.46,6.93-2.43-.3-5.08-.45-7.96-.45-3.03,0-5.83,.15-8.41,.45,.3-1.51,.64-4.32,1.02-8.41,.38-4.09,.72-8.98,1.02-14.66,.3-5.68,.64-11.85,1.02-18.52,.38-6.67,.68-13.33,.91-20,.23-6.67,.42-13.18,.57-19.55,.15-6.36,.23-12.05,.23-17.05,0-14.55-.04-27.05-.11-37.5-.08-10.46-.27-18.26-.57-23.41h3.64c9.24,10,19.13,20.72,29.66,32.16,10.53,11.44,20.99,22.73,31.37,33.87,10.38,11.14,20.23,21.67,29.55,31.59,9.32,9.93,17.46,18.38,24.43,25.34v-30.91c0-15.91-.11-31.4-.34-46.48-.23-15.08-.72-29.28-1.48-42.62,3.03,.76,5.6,1.14,7.73,1.14,1.82,0,4.24-.38,7.27-1.14-.3,3.33-.65,8.33-1.02,15-.38,6.67-.76,13.79-1.14,21.36-.38,7.58-.72,15-1.02,22.27-.31,7.27-.45,13.11-.45,17.5v13.64c0,5.15,.04,10.53,.11,16.14,.07,5.61,.15,11.25,.23,16.93,.07,5.68,.15,10.99,.23,15.91,.08,4.93,.11,9.21,.11,12.84v7.5h-3.18c-17.43-20.15-35.99-40.8-55.68-61.94Z" fill="#fff"/>
    </g>
    <rect x="18.44" y="292.36" width="262.18" height="4.9" fill="#fff"/>
    <g>
      <path d="M326.66,288.07c0-3.57-.07-7.07-.2-10.51-.14-3.44-.28-6.94-.45-10.51,2.06,.11,4.1,.2,6.13,.28s4.07,.12,6.13,.12,4.1-.07,6.13-.2c2.03-.13,4.07-.2,6.13-.2,4.76,0,8.83,.62,12.22,1.87s6.16,3.02,8.32,5.32c2.16,2.3,3.75,5.11,4.75,8.44,1,3.33,1.5,7.08,1.5,11.24,0,5.41-.93,9.97-2.8,13.68-1.87,3.71-4.25,6.7-7.14,8.97-2.9,2.27-6.09,3.88-9.58,4.83-3.49,.95-6.83,1.42-10.02,1.42-1.84,0-3.65-.03-5.44-.08-1.79-.05-3.6-.08-5.44-.08h-5.44c-1.79,0-3.6,.05-5.44,.16,.16-3.35,.31-6.76,.45-10.23,.13-3.46,.2-6.98,.2-10.55v-13.96Zm6.66,13.96c0,5.84,.16,11.58,.49,17.21,1.14,.27,2.68,.47,4.63,.61,1.95,.14,3.95,.2,6.01,.2,2.97,0,5.95-.35,8.93-1.05,2.98-.7,5.64-2.03,8-3.98,2.35-1.95,4.27-4.61,5.76-8,1.49-3.38,2.23-7.75,2.23-13.11,0-4.71-.58-8.58-1.75-11.61-1.17-3.03-2.76-5.42-4.79-7.18-2.03-1.76-4.45-2.98-7.27-3.65-2.81-.68-5.9-1.01-9.25-1.01-2.43,0-4.71,.08-6.82,.24s-4,.35-5.68,.57c-.16,2.6-.28,5.32-.37,8.16-.08,2.84-.12,5.72-.12,8.64v13.96Z" fill="#fff"/>
      <path d="M430.15,322.81c-.76-.11-1.47-.16-2.15-.16h-4.3c-.68,0-1.39,.05-2.15,.16-.38-1.24-.89-2.75-1.54-4.5-.65-1.76-1.37-3.6-2.15-5.52-.79-1.92-1.58-3.87-2.39-5.84-.81-1.97-1.57-3.86-2.27-5.64-1.73-.05-3.49-.09-5.28-.12-1.79-.03-3.57-.04-5.36-.04-1.68,0-3.33,.01-4.95,.04-1.62,.03-3.27,.07-4.95,.12-1.73,4.22-3.3,8.24-4.71,12.05-1.41,3.81-2.46,6.97-3.17,9.46-.92-.11-1.92-.16-3-.16s-2.08,.05-3,.16c4.38-9.47,8.66-18.89,12.83-28.25,4.17-9.36,8.36-18.89,12.58-28.57h1.54c1.3,3.14,2.71,6.53,4.22,10.19,1.51,3.65,3.06,7.35,4.63,11.08,1.57,3.73,3.14,7.44,4.71,11.12,1.57,3.68,3.04,7.1,4.42,10.27,1.38,3.17,2.62,5.99,3.73,8.48,1.11,2.49,2.02,4.38,2.72,5.68Zm-35.96-25.25c1.41,0,2.87,.03,4.38,.08,1.51,.05,2.98,.08,4.38,.08,1.51,0,3.03-.01,4.55-.04,1.51-.03,3.03-.07,4.55-.12l-9.01-20.62-8.85,20.62Z" fill="#fff"/>
      <path d="M439.28,277.56c-.14-3.44-.28-6.94-.45-10.51,.7,.11,1.38,.2,2.03,.28s1.3,.12,1.95,.12,1.3-.04,1.95-.12,1.33-.18,2.03-.28c-.16,3.57-.31,7.08-.45,10.51-.14,3.44-.2,6.94-.2,10.51v13.96c0,3.57,.07,7.09,.2,10.55,.13,3.46,.28,6.87,.45,10.23-1.25-.11-2.57-.16-3.98-.16s-2.73,.05-3.98,.16c.16-3.35,.31-6.76,.45-10.23,.13-3.46,.2-6.98,.2-10.55v-13.96c0-3.57-.07-7.07-.2-10.51Z" fill="#fff"/>
      <path d="M462.05,288.07c0-3.57-.07-7.07-.2-10.51-.14-3.44-.28-6.94-.45-10.51,1.57,.11,3.11,.2,4.63,.28,1.51,.08,3.06,.12,4.63,.12s3.11-.07,4.63-.2c1.51-.13,3.06-.2,4.63-.2,2.27,0,4.44,.22,6.49,.65,2.06,.43,3.86,1.15,5.4,2.15,1.54,1,2.76,2.31,3.65,3.94,.89,1.62,1.34,3.65,1.34,6.09,0,2.6-.58,4.83-1.75,6.7-1.16,1.87-2.58,3.41-4.26,4.63-1.68,1.22-3.48,2.17-5.4,2.84s-3.67,1.12-5.24,1.34c.65,.81,1.54,1.95,2.68,3.41s2.41,3.07,3.82,4.83c1.41,1.76,2.87,3.6,4.38,5.52,1.51,1.92,2.98,3.76,4.38,5.52,1.41,1.76,2.73,3.37,3.98,4.83,1.24,1.46,2.25,2.57,3,3.33-.81-.11-1.62-.16-2.43-.16h-4.79c-.81,0-1.6,.05-2.35,.16-.81-1.14-2.04-2.84-3.69-5.11-1.65-2.27-3.48-4.71-5.48-7.31-2-2.6-4.05-5.18-6.13-7.75-2.08-2.57-3.99-4.75-5.72-6.54h-3.08v5.93c0,3.57,.07,7.09,.2,10.55,.13,3.46,.28,6.87,.45,10.23-1.25-.11-2.57-.16-3.98-.16s-2.73,.05-3.98,.16c.16-3.35,.31-6.76,.45-10.23,.13-3.46,.2-6.98,.2-10.55v-13.96Zm6.66,4.63c.76,.16,1.58,.27,2.48,.33s1.88,.08,2.96,.08c1.68,0,3.42-.19,5.24-.57,1.81-.38,3.48-1.04,4.99-1.99,1.51-.95,2.77-2.22,3.77-3.81,1-1.6,1.5-3.61,1.5-6.05,0-2.11-.39-3.86-1.18-5.24-.79-1.38-1.8-2.48-3.04-3.29-1.25-.81-2.6-1.37-4.06-1.66-1.46-.3-2.9-.45-4.3-.45-1.89,0-3.46,.04-4.71,.12-1.25,.08-2.3,.18-3.17,.28-.11,2.98-.22,5.93-.33,8.85-.11,2.92-.16,5.84-.16,8.77v4.63Z" fill="#fff"/>
      <path d="M522.2,300c-.54-.92-1.34-2.26-2.39-4.02-1.05-1.76-2.22-3.71-3.49-5.84-1.27-2.14-2.61-4.38-4.02-6.74-1.41-2.35-2.75-4.6-4.02-6.74-1.27-2.14-2.42-4.06-3.45-5.76-1.03-1.71-1.81-2.99-2.35-3.86,.76,.11,1.5,.2,2.23,.28,.73,.08,1.47,.12,2.23,.12s1.5-.04,2.23-.12,1.47-.18,2.23-.28c2.44,4.71,4.91,9.33,7.43,13.88,2.52,4.54,5.18,9.28,8,14.21,1.24-1.95,2.54-4.09,3.9-6.41,1.35-2.33,2.71-4.71,4.06-7.14,1.35-2.43,2.65-4.88,3.9-7.35,1.24-2.46,2.41-4.86,3.49-7.18,1.35,.27,2.41,.41,3.17,.41s1.81-.13,3.17-.41c-2.6,3.95-4.93,7.52-6.98,10.71-2.06,3.19-3.87,6.09-5.44,8.69-1.57,2.6-2.95,4.94-4.14,7.02-1.19,2.08-2.22,3.96-3.08,5.64,0,2,.01,4.14,.04,6.41,.03,2.27,.07,4.51,.12,6.7s.12,4.22,.2,6.09,.17,3.37,.28,4.5c-1.25-.11-2.57-.16-3.98-.16s-2.73,.05-3.98,.16c.33-2.81,.51-6.22,.57-10.23,.05-4,.08-8.2,.08-12.58Z" fill="#fff"/>
      <path d="M621.19,277.56c-.14-3.44-.28-6.94-.45-10.51,.7,.11,1.38,.2,2.03,.28s1.3,.12,1.95,.12,1.3-.04,1.95-.12,1.33-.18,2.03-.28c-.16,3.57-.31,7.08-.45,10.51-.14,3.44-.2,6.94-.2,10.51v13.96c0,3.57,.07,7.09,.2,10.55,.13,3.46,.28,6.87,.45,10.23-1.25-.11-2.57-.16-3.98-.16s-2.73,.05-3.98,.16c.16-3.35,.31-6.76,.45-10.23,.13-3.46,.2-6.98,.2-10.55v-7.31c-2.92-.05-5.75-.09-8.48-.12s-5.56-.04-8.48-.04-5.75,.01-8.48,.04c-2.73,.03-5.56,.07-8.48,.12v7.31c0,3.57,.07,7.09,.2,10.55,.13,3.46,.28,6.87,.45,10.23-1.25-.11-2.57-.16-3.98-.16s-2.73,.05-3.98,.16c.16-3.35,.31-6.76,.45-10.23,.13-3.46,.2-6.98,.2-10.55v-13.96c0-3.57-.07-7.07-.2-10.51-.14-3.44-.28-6.94-.45-10.51,.7,.11,1.38,.2,2.03,.28s1.3,.12,1.95,.12,1.3-.04,1.95-.12,1.33-.18,2.03-.28c-.16,3.57-.31,7.08-.45,10.51-.14,3.44-.2,6.94-.2,10.51v2.84c2.92,.05,5.75,.11,8.48,.16,2.73,.05,5.56,.08,8.48,.08s5.75-.03,8.48-.08c2.73-.05,5.56-.11,8.48-.16v-2.84c0-3.57-.07-7.07-.2-10.51Z" fill="#fff"/>
      <path d="M639.42,295.05c0-4.6,.74-8.7,2.23-12.3,1.49-3.6,3.57-6.64,6.25-9.13s5.89-4.38,9.62-5.68c3.73-1.3,7.82-1.95,12.26-1.95s8.6,.65,12.34,1.95,6.94,3.19,9.62,5.68,4.76,5.53,6.25,9.13c1.49,3.6,2.23,7.7,2.23,12.3s-.74,8.7-2.23,12.3c-1.49,3.6-3.57,6.64-6.25,9.13-2.68,2.49-5.88,4.34-9.62,5.56-3.73,1.22-7.85,1.83-12.34,1.83s-8.52-.61-12.26-1.83c-3.73-1.22-6.94-3.07-9.62-5.56-2.68-2.49-4.76-5.53-6.25-9.13-1.49-3.6-2.23-7.7-2.23-12.3Zm52.84,0c0-4.49-.57-8.37-1.7-11.65-1.14-3.27-2.72-5.98-4.75-8.12s-4.41-3.72-7.14-4.75c-2.73-1.03-5.7-1.54-8.89-1.54s-6.08,.51-8.81,1.54c-2.73,1.03-5.11,2.61-7.14,4.75s-3.61,4.84-4.75,8.12c-1.14,3.27-1.71,7.16-1.71,11.65s.57,8.37,1.71,11.65c1.14,3.27,2.72,5.98,4.75,8.12,2.03,2.14,4.41,3.72,7.14,4.75,2.73,1.03,5.67,1.54,8.81,1.54s6.16-.51,8.89-1.54c2.73-1.03,5.11-2.61,7.14-4.75,2.03-2.14,3.61-4.84,4.75-8.12,1.14-3.27,1.7-7.16,1.7-11.65Z" fill="#fff"/>
      <path d="M753.87,293.42c0-7.68-.03-13.61-.08-17.78-.05-4.17-.19-7.03-.41-8.6,.59,.11,1.16,.2,1.7,.28,.54,.08,1.08,.12,1.62,.12,.7,0,1.51-.13,2.44-.41-.16,1.89-.32,4.15-.49,6.78-.16,2.63-.3,5.44-.41,8.44-.11,3-.22,6.09-.33,9.25s-.19,6.24-.24,9.21c-.05,3.63-.61,6.87-1.66,9.74-1.06,2.87-2.56,5.3-4.5,7.31s-4.34,3.52-7.18,4.55c-2.84,1.03-6.1,1.54-9.78,1.54-8.12,0-14.02-1.84-17.7-5.52-3.68-3.68-5.52-9.5-5.52-17.45,0-2.54,.07-4.8,.2-6.78,.13-1.97,.2-3.99,.2-6.05,0-4.55-.05-8.58-.16-12.09-.11-3.52-.22-6.49-.33-8.93,.65,.11,1.35,.2,2.11,.28,.76,.08,1.46,.12,2.11,.12,.59,0,1.18-.04,1.75-.12s1.15-.18,1.75-.28c-.11,1.19-.22,2.75-.33,4.67-.11,1.92-.22,4.1-.32,6.54-.11,2.43-.19,5.06-.24,7.87-.05,2.81-.08,5.74-.08,8.77,0,1.84,.03,3.75,.08,5.72,.05,1.98,.24,3.9,.57,5.76,.33,1.87,.85,3.65,1.58,5.36,.73,1.71,1.77,3.19,3.13,4.46,1.35,1.27,3.06,2.27,5.11,3s4.6,1.1,7.63,1.1,5.48-.43,7.51-1.3c2.03-.87,3.69-2,4.99-3.41,1.3-1.41,2.31-3.03,3.04-4.87,.73-1.84,1.26-3.76,1.58-5.76,.33-2,.51-4,.57-6.01,.05-2,.08-3.84,.08-5.52Z" fill="#fff"/>
      <path d="M774.69,315.22c.73,1,1.62,1.91,2.68,2.72,1.06,.81,2.29,1.47,3.69,1.99,1.41,.52,2.98,.77,4.71,.77s3.4-.31,4.83-.93c1.43-.62,2.65-1.46,3.65-2.52,1-1.05,1.77-2.3,2.31-3.73,.54-1.43,.81-2.96,.81-4.59,0-2.49-.64-4.46-1.91-5.92-1.27-1.46-2.85-2.68-4.75-3.65-1.9-.97-3.94-1.87-6.13-2.68s-4.23-1.83-6.13-3.04c-1.9-1.22-3.48-2.77-4.75-4.67-1.27-1.89-1.91-4.44-1.91-7.63,0-2.27,.41-4.34,1.22-6.21,.81-1.87,1.99-3.48,3.53-4.83s3.4-2.41,5.56-3.17c2.16-.76,4.6-1.14,7.31-1.14s4.84,.31,6.74,.93c1.89,.62,3.65,1.58,5.28,2.88-.49,.92-.89,1.89-1.22,2.92-.32,1.03-.65,2.33-.97,3.9h-.97c-.27-.76-.64-1.58-1.1-2.48-.46-.89-1.08-1.72-1.87-2.48-.79-.76-1.72-1.39-2.8-1.91-1.08-.51-2.38-.77-3.9-.77s-2.91,.24-4.18,.73c-1.27,.49-2.38,1.18-3.33,2.07-.95,.89-1.68,1.96-2.19,3.21-.52,1.25-.77,2.6-.77,4.06,0,2.54,.64,4.55,1.91,6.01s2.85,2.69,4.75,3.69c1.89,1,3.94,1.89,6.13,2.68,2.19,.79,4.23,1.75,6.13,2.88,1.89,1.14,3.48,2.6,4.75,4.38,1.27,1.79,1.91,4.17,1.91,7.14,0,2.49-.45,4.84-1.34,7.06-.89,2.22-2.19,4.15-3.9,5.8-1.71,1.65-3.79,2.92-6.25,3.81-2.46,.89-5.26,1.34-8.4,1.34-3.36,0-6.08-.45-8.16-1.34-2.08-.89-3.83-1.91-5.24-3.04,.49-1.24,.83-2.37,1.01-3.37,.19-1,.37-2.29,.53-3.86h.97c.43,.97,1.01,1.96,1.75,2.96Z" fill="#fff"/>
      <path d="M815.12,277.43c-.14-3.46-.28-6.93-.45-10.39,2.44,.11,4.86,.2,7.26,.28,2.41,.08,4.83,.12,7.27,.12s4.84-.04,7.22-.12c2.38-.08,4.79-.18,7.22-.28-.16,.81-.24,1.62-.24,2.43s.08,1.62,.24,2.44c-1.73-.11-3.32-.22-4.75-.32-1.43-.11-2.95-.22-4.55-.33-1.6-.11-3.34-.2-5.24-.28-1.9-.08-4.17-.12-6.82-.12-.05,1.73-.12,3.38-.2,4.95-.08,1.57-.12,3.36-.12,5.36,0,2.11,.01,4.17,.04,6.17,.03,2,.04,3.52,.04,4.55,2.38,0,4.52-.03,6.41-.08,1.89-.05,3.62-.12,5.19-.2,1.57-.08,3.02-.16,4.34-.24s2.58-.18,3.78-.28c-.16,.81-.24,1.65-.24,2.52,0,.81,.08,1.62,.24,2.44-1.41-.16-3.04-.3-4.91-.41-1.87-.11-3.73-.18-5.6-.2-1.87-.03-3.63-.05-5.28-.08-1.65-.03-2.96-.04-3.94-.04,0,.49-.01,1.01-.04,1.58s-.04,1.29-.04,2.15v8.04c0,3.08,.01,5.63,.04,7.63,.03,2,.07,3.52,.12,4.55h5.68c2.06,0,4.07-.04,6.05-.12,1.97-.08,3.84-.19,5.6-.32,1.76-.13,3.29-.34,4.59-.61-.11,.38-.18,.8-.2,1.26-.03,.46-.04,.88-.04,1.26,0,.87,.08,1.57,.24,2.11-2.44-.11-4.86-.16-7.26-.16h-14.73c-2.44,0-4.9,.05-7.39,.16,.16-3.46,.31-6.91,.45-10.35,.13-3.44,.2-6.94,.2-10.51v-13.96c0-3.57-.07-7.09-.2-10.55Z" fill="#fff"/>
    </g>
    <rect x="886.68" y="291.98" width="262.18" height="4.9" fill="#fff"/>
  </g>
</svg>