<?xml version="1.0" encoding="UTF-8"?>
<svg id="Sticker-Milk" xmlns="http://www.w3.org/2000/svg" viewBox="0 0 159.34 174.43">
  <path d="m42.27,149.27l41.3,20.65c.56.28,1.21-.13,1.21-.75v-104.94l-42.45-21.23s-.06,0-.06.04v106.22Z" fill="#0e82f6" stroke="#231f20" stroke-miterlimit="10"/>
  <path d="m125.03,150.41c1.39-.7,2.27-2.12,2.27-3.67V43.25c0-.13-.09-.23-.17-.19l-40.08,20.04c-1.39.7-2.27,2.12-2.27,3.67v103.29c0,.23.15.4.3.32l39.95-19.98Z" fill="#0e82f6" stroke="#231f20" stroke-miterlimit="10"/>
  <path d="m106.08,21.63l21,21.39s.01.06-.01.07l-42.18,21.09s-.08-.02-.06-.06l21.17-42.48s.05-.03.07-.01Z" fill="#c0d6fc" stroke="#231f20" stroke-miterlimit="10"/>
  <path d="m87.09,61.95c-.42.4.07,1.06.6.8l39.61-19.08c.12-.06-42.52-21.23-42.52-21.23l.06,41.68" fill="none" stroke="#231f20" stroke-miterlimit="10"/>
  <path d="m42.55,42.57L63.3.77c.12-.25.42-.34.66-.22l41.51,20.76.29.85-19.92,41.5c-.12.25-.42.35-.66.23l-42.41-20.66c-.25-.12-.35-.42-.23-.66Z" fill="#0e82f6" stroke="#231f20" stroke-miterlimit="10"/>
  <polygon points="48.22 52.2 78.83 67.51 78.83 161.05 48.22 145.74 48.22 52.2" fill="#c0d6fc" stroke="#231f20" stroke-miterlimit="10"/>
  <polygon points="121.35 52.17 90.74 67.47 90.74 161.01 121.35 145.71 121.35 52.17" fill="#c0d6fc" stroke="#231f20" stroke-miterlimit="10"/>
  <path d="m105.84,21.98l.2-.4c-.08.16-4.43,9.21-4.27,9.29l23.07,11.09c.45.22.86-.36.51-.71l-19-19.35c-.15-.15-.41-.11-.51.08Z" fill="#0e82f6" stroke="#231f20" stroke-miterlimit="10"/>
  <text/>
</svg>