<?xml version="1.0" encoding="UTF-8"?>
<svg id="Sticker-Cow" xmlns="http://www.w3.org/2000/svg" viewBox="0 0 159.34 174.43">
  <g>
    <path d="m105.77,120.74s35,2.47,33.41-35.1" fill="none" stroke="#231f20" stroke-miterlimit="10"/>
    <path d="m101.3,116.77s34.84,2.92,32.66-33.01" fill="none" stroke="#231f20" stroke-miterlimit="10"/>
    <g>
      <path d="m136.22,90.58s17.3-7.03.36-20.61" fill="#231f20" stroke-width="0"/>
      <path d="m137.24,90.6s-17.05-7.63.36-20.61" fill="#231f20" stroke-width="0"/>
    </g>
  </g>
  <g>
    <path d="m52.97,18.98s-7.53-8.69-18.77-6.22,7.96,20.12,7.96,20.12l10.81-13.9Z" fill="#fff" stroke="#231f20" stroke-miterlimit="10"/>
    <path d="m52.06,20.29s-7.1-7.05-16.55-5.55,8.09,16.42,8.09,16.42l8.46-10.88Z" fill="#ed7a9a" stroke="#231f20" stroke-miterlimit="10" stroke-width=".75"/>
  </g>
  <g>
    <path d="m105.7,18.98s7.53-8.69,18.77-6.22-7.96,20.12-7.96,20.12l-10.81-13.9Z" fill="#fff" stroke="#231f20" stroke-miterlimit="10"/>
    <path d="m106.61,20.29s7.1-7.05,16.55-5.55-8.09,16.42-8.09,16.42l-8.46-10.88Z" fill="#ed7a9a" stroke="#231f20" stroke-miterlimit="10" stroke-width=".75"/>
  </g>
  <g>
    <path d="m46.2,116.16l14.12,10.01s-10.86,21-17.5,23.99-10.16-13.72-22.02-7.96c-7.45,3.62.2-10.66,6.91-21.76,3.93-6.51,12.55-8.49,18.49-4.28Z" fill="#fff" stroke="#231f20" stroke-miterlimit="10"/>
    <path d="m5.18,145.82c-.05-.04-.1-.08-.14-.13-.64-.72-5.83-6.84-2.4-10.47,1.92-2.04,5.56-2.58,9.11-1.32,1.44.51,1.88,0,1.18-1.33-2.27-4.28-2.24-9.67,2.3-10.13,7.32-.73,12.26,4.95,12.7,5.47.02.03.04.05.07.08,1.04,1.01,22.68,22.16,12.35,29.78-10.25,7.56-33.67-10.77-35.17-11.96Z" fill="#231f20" stroke="#000" stroke-miterlimit="10"/>
  </g>
  <g>
    <path d="m111.08,115.57l-12.32,12.15s14.1,18.98,21.13,20.86c7.03,1.88,7.82-15.18,20.45-11.4,7.94,2.38-1.92-10.49-10.33-20.37-4.93-5.79-13.75-6.36-18.93-1.25Z" fill="#fff" stroke="#231f20" stroke-miterlimit="10"/>
    <path d="m156.34,138.24s.08-.1.12-.15c.51-.82,4.66-7.68.69-10.72-2.22-1.7-5.91-1.65-9.2.16-1.34.74-1.86.3-1.38-1.12,1.55-4.59.65-9.91-3.9-9.62-7.34.46-11.31,6.86-11.65,7.44-.02.03-.03.06-.06.09-.86,1.16-18.82,25.52-7.39,31.38,11.33,5.81,31.5-16.04,32.79-17.46Z" fill="#231f20" stroke="#000" stroke-miterlimit="10"/>
  </g>
  <circle cx="79.26" cy="48.36" r="40" fill="#fff" stroke="#231f20" stroke-miterlimit="10"/>
  <ellipse cx="62.74" cy="45.74" rx="7.16" ry="10.94" transform="translate(-8.87 15.75) rotate(-13.37)" fill="#231f20" stroke="#fff" stroke-miterlimit="10"/>
  <ellipse cx="95.11" cy="45.74" rx="10.94" ry="7.16" transform="translate(28.63 127.7) rotate(-76.63)" fill="#231f20" stroke="#fff" stroke-miterlimit="10"/>
  <rect x="41.82" y="96.04" width="78.89" height="54.4" rx="12" ry="12" fill="#fff" stroke-width="0"/>
  <path d="m116.82,89.71c17.52,10.15,0,62.57,0,62.57" fill="#fff" stroke="#231f20" stroke-miterlimit="10"/>
  <path d="m95.02,89.63c-18.45,1.91-26.31,14.94-8.62,14.32.23,0,.46-.02.69-.03,8.43-.38,12.06.83,13.26,2.53,1.48,2.11,8.54,1.48,12.33-1.12,6.34-4.35,11.32-9.44,7.42-13.09-3.99-3.73-14.88-3.68-25.08-2.62Z" fill="#231f20" stroke-width="0"/>
  <path d="m79.76,153.48v2.88c0,5.5.09,16.61,6.69,16.61l15.46-.1c1.06,0,4.83-3.43,5.87-3.5.97-.06,1.7,3.9,2.57,3.23,3.65-2.84,6.06-10.09,6.06-16.25v-2.88" fill="#231f20" stroke-width="0"/>
  <ellipse cx="79.26" cy="73.36" rx="50" ry="25" fill="#f9c0c0" stroke="#231f20" stroke-miterlimit="10"/>
  <path d="m116.85,152.11s0,6.25-18.55,6.25-18.55-6.25-18.55-6.25l-.5-26.29s-1.12-8.48-5.87-10.86" fill="#fff" stroke="#231f20" stroke-miterlimit="10"/>
  <path d="m43.04,153.48v2.88c0,6.15,2.41,13.41,6.06,16.25.87.67,1.68-2.89,2.65-2.83,1.05.07,4.73,3.1,5.79,3.1l15.46.1c6.6,0,6.69-11.12,6.69-16.61v-2.88" fill="#231f20" stroke-width="0"/>
  <path d="m79.69,152.15s0,6.22-18.55,6.22-18.55-6.22-18.55-6.22c0,0-16.22-51.47,0-61.44" fill="#fff" stroke="#231f20" stroke-miterlimit="10"/>
  <path d="m79.26,125.83s1.12-8.48,5.87-10.86" fill="#fff" stroke="#231f20" stroke-miterlimit="10"/>
  <path d="m71.18,83.36s5.69,5.78,13.95,4.15" fill="none" stroke="#231f20" stroke-miterlimit="10"/>
  <ellipse cx="95.11" cy="68.15" rx="3.47" ry="5.49" transform="translate(.61 137.16) rotate(-71.76)" fill="#231f20" stroke-width="0"/>
  <ellipse cx="62.74" cy="68.15" rx="5.49" ry="3.47" transform="translate(-18.18 23.06) rotate(-18.24)" fill="#231f20" stroke-width="0"/>
  <circle cx="59.85" cy="39.66" r="2.25" fill="#fff" stroke="#231f20" stroke-miterlimit="10"/>
  <circle cx="95.11" cy="38.92" r="2.25" fill="#fff" stroke="#231f20" stroke-miterlimit="10"/>
  <path d="m35.32,110.69c-.04-4.01,4.75-6.17,7.66-3.4,1.87,1.78,2.99,4.28,1.45,7.68-3.79,8.37,4.23,10.86,4.57,15.49s-9.4,10.61-9.4,10.61l-3.37-17.93s-.86-6.49-.92-12.45Z" fill="#231f20" stroke-width="0"/>
  <path d="m107.44,120.74c-7.6-2.41-12.01,8.45-4.84,11.94.09.05.19.09.28.13,3.42,1.58,4.77,3.59,5.09,5.53.39,2.39,3.29,3.42,5.06,1.76,2.96-2.77,5.45-6.57,4.23-11.01s-5.63-7.02-9.83-8.35Z" fill="#231f20" stroke-width="0"/>
  <path d="m84.41,8.36c6.6.75,7.19,3.57,5.6,7.26-1.02,2.37-2.98,4.29-6.7,4.03-9.16-.65-5.76,6.83-10.39,7.2-20.86,1.64-18.24-10.32-18.24-10.32l10.43-5.53c2.26-1.2,6.56-1.77,9.65-2.02,11.82-.96,6.05-1.02,9.64-.61Z" fill="#231f20" stroke-width="0"/>
  <path d="m102.3,20.51c-7.6-2.41-12.01,8.45-4.84,11.94.09.05.19.09.28.13,3.42,1.58,4.77,3.59,5.09,5.53.39,2.39,3.29,3.42,5.06,1.76,2.96-2.77,5.45-6.57,4.23-11.01s-5.63-7.02-9.83-8.35Z" fill="#231f20" stroke-width="0"/>
</svg>