<?xml version="1.0" encoding="UTF-8"?>
<svg id="Sticker-Kiss_Cow" data-name="Sticker-Kiss Cow" xmlns="http://www.w3.org/2000/svg" viewBox="0 0 159.34 174.43">
  <g>
    <path d="m43.67,47.86s-10.02-11.57-24.98-8.28c-14.96,3.29,10.59,26.78,10.59,26.78l14.39-18.5Z" fill="#fff" stroke="#231f20" stroke-miterlimit="10"/>
    <path d="m42.46,49.61s-9.44-9.38-22.02-7.38c-12,1.9,10.76,21.85,10.76,21.85l11.26-14.47Z" fill="#ed7a9a" stroke="#231f20" stroke-miterlimit="10" stroke-width=".75"/>
  </g>
  <g>
    <path d="m113.84,47.86s10.02-11.57,24.98-8.28-10.59,26.78-10.59,26.78l-14.39-18.5Z" fill="#fff" stroke="#231f20" stroke-miterlimit="10"/>
    <path d="m115.05,49.61s9.44-9.38,22.02-7.38-10.76,21.85-10.76,21.85l-11.26-14.47Z" fill="#ed7a9a" stroke="#231f20" stroke-miterlimit="10" stroke-width=".75"/>
  </g>
  <circle cx="78.65" cy="86.96" r="53.23" fill="#fff" stroke="#231f20" stroke-miterlimit="10"/>
  <ellipse cx="56.67" cy="83.47" rx="9.52" ry="14.56" transform="translate(-17.76 15.36) rotate(-13.37)" fill="#231f20" stroke="#fff" stroke-miterlimit="10"/>
  <ellipse cx="98.12" cy="90.35" rx="7.48" ry="9.52" transform="translate(-12.47 164.92) rotate(-76.63)" fill="#231f20" stroke="#fff" stroke-miterlimit="10"/>
  <ellipse cx="78.65" cy="120.23" rx="66.54" ry="33.27" fill="#f9c0c0" stroke="#231f20" stroke-miterlimit="10"/>
  <ellipse cx="99.75" cy="113.3" rx="4.61" ry="7.31" transform="translate(-39.08 172.57) rotate(-71.76)" fill="#231f20" stroke-width="0"/>
  <ellipse cx="56.67" cy="113.3" rx="7.31" ry="4.61" transform="translate(-32.62 23.43) rotate(-18.24)" fill="#231f20" stroke-width="0"/>
  <circle cx="52.82" cy="75.38" r="3" fill="#fff" stroke="#231f20" stroke-miterlimit="10"/>
  <path d="m85.51,33.73c8.79,1,9.57,4.75,7.46,9.66-1.36,3.16-3.97,5.71-8.91,5.36-12.19-.87-7.67,9.09-13.83,9.58-27.76,2.18-24.27-13.74-24.27-13.74l13.88-7.36c3.01-1.6,8.73-2.35,12.84-2.68,15.74-1.27,8.05-1.36,12.83-.81Z" fill="#231f20" stroke-width="0"/>
  <path d="m109.31,49.89c-10.12-3.21-15.98,11.25-6.44,15.89.12.06.25.12.38.18,4.56,2.1,6.35,4.78,6.77,7.36.52,3.18,4.38,4.55,6.74,2.35,3.94-3.68,7.26-8.74,5.64-14.66s-7.5-9.34-13.09-11.11Z" fill="#231f20" stroke-width="0"/>
  <path d="m71.83,128.21l11.56,3.76c.38.12.37.67-.01.78l-3.12.89c-1.4.4-1.58,2.31-.28,2.97l2.88,1.44c.42.21.37.83-.09.96l-10.34,2.92" fill="#f9c0c0" stroke="#231f20" stroke-miterlimit="10"/>
  <g>
    <path d="m98.32,152.15s-13.54-18.71-12.25-26.77,9.35-6.77,9.35-6.77c0,0,8.06,1.29,6.77,9.35" fill="#f42222" stroke="#231f20" stroke-miterlimit="10"/>
    <path d="m97.89,152.08s18.71-13.54,20-21.6-6.77-9.35-6.77-9.35c0,0-8.06-1.29-9.35,6.77" fill="#f42222" stroke="#231f20" stroke-miterlimit="10"/>
  </g>
</svg>